<svg width="86" height="101" viewBox="0 0 86 101" fill="none" xmlns="http://www.w3.org/2000/svg">
<rect width="86" height="101" rx="20" fill="#FFC735"/>
<path d="M17.566 61.78L20.489 61.41V39.284L17.714 38.766V36.509H23.079C23.5477 36.509 24.0657 36.4967 24.633 36.472C25.2004 36.4473 25.632 36.4227 25.928 36.398C27.2107 36.2993 28.2714 36.25 29.11 36.25C31.6507 36.25 33.6857 36.509 35.215 37.027C36.7444 37.545 37.8544 38.3343 38.545 39.395C39.2357 40.4557 39.581 41.8493 39.581 43.576C39.581 45.278 39.1247 46.8567 38.212 48.312C37.2994 49.7673 35.9797 50.7663 34.253 51.309C35.2397 51.7283 36.1154 52.493 36.88 53.603C37.6447 54.713 38.4587 56.156 39.322 57.932C39.9387 59.1407 40.4074 60.0163 40.728 60.559C41.0734 61.077 41.4064 61.373 41.727 61.447L42.948 61.817V64H36.658C36.2634 64 35.844 63.6053 35.4 62.816C34.9807 62.002 34.4257 60.7317 33.735 59.005C32.921 56.9823 32.218 55.4037 31.626 54.269C31.034 53.1343 30.405 52.4313 29.739 52.16H25.928V61.41L29.332 61.78V64H17.566V61.78ZM29.332 49.903C30.738 49.903 31.8357 49.3973 32.625 48.386C33.4144 47.3747 33.809 45.8577 33.809 43.835C33.809 42.0343 33.4144 40.7023 32.625 39.839C31.8604 38.9757 30.5284 38.544 28.629 38.544C27.9384 38.544 27.3464 38.581 26.853 38.655C26.3844 38.7043 26.076 38.729 25.928 38.729V49.829C26.224 49.8783 26.9394 49.903 28.074 49.903H29.332ZM47.1551 39.284L44.2691 38.803V36.509H49.7821C50.6207 36.509 51.7061 36.4597 53.0381 36.361C53.3587 36.3363 53.7411 36.3117 54.1851 36.287C54.6291 36.2623 55.1471 36.25 55.7391 36.25C59.4637 36.25 62.0661 36.7803 63.5461 37.841C65.0507 38.877 65.8031 40.431 65.8031 42.503C65.8031 44.3283 65.2481 45.8577 64.1381 47.091C63.0527 48.2997 61.6221 49.0397 59.8461 49.311C62.2881 49.2863 64.1997 49.8413 65.5811 50.976C66.9871 52.1107 67.6901 53.6893 67.6901 55.712C67.6901 58.2773 66.7897 60.337 64.9891 61.891C63.1884 63.445 60.1791 64.222 55.9611 64.222C54.8511 64.222 53.8274 64.185 52.8901 64.111C52.6434 64.111 52.2241 64.0863 51.6321 64.037C51.0401 64.0123 50.4357 64 49.8191 64H44.2321V61.78L47.1551 61.41V39.284ZM52.5201 48.497C52.7914 48.5217 53.3464 48.534 54.1851 48.534H55.9241C57.4287 48.534 58.5511 48.0653 59.2911 47.128C60.0311 46.1907 60.4011 44.871 60.4011 43.169C60.4011 41.541 60.0187 40.357 59.2541 39.617C58.4894 38.877 57.2191 38.507 55.4431 38.507C54.9744 38.507 54.0001 38.5563 52.5201 38.655V48.497ZM52.5201 61.558C53.0874 61.78 54.1727 61.891 55.7761 61.891C57.8727 61.891 59.3897 61.3977 60.3271 60.411C61.2644 59.4243 61.7331 57.9937 61.7331 56.119C61.7331 54.3183 61.3014 53.0357 60.4381 52.271C59.5994 51.4817 58.2551 51.087 56.4051 51.087C54.3331 51.087 53.0381 51.1117 52.5201 51.161V61.558Z" fill="#463C74"/>
</svg>
